<mxfile host="www.draw.io" modified="2019-12-30T03:52:54.895Z" agent="Mozilla/5.0 (Windows NT 6.1; WOW64) AppleWebKit/537.36 (KHTML, like Gecko) Chrome/75.0.3770.100 Safari/537.36" etag="RsJ_N9asZI2y3UMm5MVL" version="12.4.7" type="github">
  <diagram id="qYqDt66bANYwKAUjIp7B" name="第 1 页">
    <mxGraphModel dx="854" dy="478" grid="1" gridSize="10" guides="1" tooltips="1" connect="1" arrows="1" fold="1" page="1" pageScale="1" pageWidth="827" pageHeight="1169" math="0" shadow="0">
      <root>
        <mxCell id="0"/>
        <mxCell id="1" parent="0"/>
        <mxCell id="UOtFKl8LUJkK913McRi7-26" value="" style="edgeStyle=orthogonalEdgeStyle;rounded=0;orthogonalLoop=1;jettySize=auto;html=1;fontSize=12;shape=flexArrow;fillColor=#CC0000;strokeColor=#000000;" parent="1" source="UOtFKl8LUJkK913McRi7-21" target="28vUUWtY91V1V11K80DQ-86" edge="1">
          <mxGeometry relative="1" as="geometry"/>
        </mxCell>
        <mxCell id="UOtFKl8LUJkK913McRi7-21" value="" style="rounded=0;whiteSpace=wrap;html=1;shadow=0;glass=0;dashed=1;comic=0;fontSize=12;fillColor=none;strokeColor=#CC0000;" parent="1" vertex="1">
          <mxGeometry x="125" y="209" width="110" height="290" as="geometry"/>
        </mxCell>
        <mxCell id="28vUUWtY91V1V11K80DQ-142" value="" style="rounded=0;whiteSpace=wrap;html=1;shadow=0;dashed=1;strokeWidth=1;fontFamily=Verdana;fontSize=12;fillColor=none;strokeColor=#CC0000;" parent="1" vertex="1">
          <mxGeometry x="40" y="510" width="760" height="340" as="geometry"/>
        </mxCell>
        <mxCell id="28vUUWtY91V1V11K80DQ-86" value="" style="rounded=0;whiteSpace=wrap;html=1;shadow=0;strokeWidth=1;fontFamily=Verdana;fontSize=12;dashed=1;fillColor=none;strokeColor=#CC0000;" parent="1" vertex="1">
          <mxGeometry x="268" y="207" width="529" height="293" as="geometry"/>
        </mxCell>
        <mxCell id="fRjOnY-xZo_MZWheay3A-4" style="edgeStyle=orthogonalEdgeStyle;rounded=0;orthogonalLoop=1;jettySize=auto;html=1;entryX=0;entryY=0.5;entryDx=0;entryDy=0;strokeColor=#000000;fontSize=12;fontColor=#CC0000;" parent="1" source="28vUUWtY91V1V11K80DQ-2" target="fRjOnY-xZo_MZWheay3A-1" edge="1">
          <mxGeometry relative="1" as="geometry"/>
        </mxCell>
        <mxCell id="28vUUWtY91V1V11K80DQ-2" value="司机接单" style="rounded=1;whiteSpace=wrap;html=1;shadow=0;labelBackgroundColor=none;strokeWidth=1;fontFamily=Verdana;fontSize=12;align=center;" parent="1" vertex="1">
          <mxGeometry x="273" y="233" width="70" height="37" as="geometry"/>
        </mxCell>
        <mxCell id="28vUUWtY91V1V11K80DQ-3" value="" style="edgeStyle=orthogonalEdgeStyle;rounded=0;orthogonalLoop=1;jettySize=auto;html=1;fontSize=12;fillColor=#e51400;strokeColor=#000000;" parent="1" source="28vUUWtY91V1V11K80DQ-4" target="28vUUWtY91V1V11K80DQ-6" edge="1">
          <mxGeometry relative="1" as="geometry"/>
        </mxCell>
        <mxCell id="28vUUWtY91V1V11K80DQ-4" value="提货" style="rounded=1;whiteSpace=wrap;html=1;shadow=0;labelBackgroundColor=none;strokeWidth=1;fontFamily=Verdana;fontSize=12;align=center;" parent="1" vertex="1">
          <mxGeometry x="488" y="233" width="70" height="37" as="geometry"/>
        </mxCell>
        <mxCell id="28vUUWtY91V1V11K80DQ-5" value="" style="edgeStyle=orthogonalEdgeStyle;rounded=0;orthogonalLoop=1;jettySize=auto;html=1;fontSize=12;fillColor=#e51400;strokeColor=#000000;" parent="1" source="28vUUWtY91V1V11K80DQ-6" target="28vUUWtY91V1V11K80DQ-7" edge="1">
          <mxGeometry relative="1" as="geometry"/>
        </mxCell>
        <mxCell id="28vUUWtY91V1V11K80DQ-6" value="在途轨迹" style="rounded=1;whiteSpace=wrap;html=1;shadow=0;labelBackgroundColor=none;strokeWidth=1;fontFamily=Verdana;fontSize=12;align=center;" parent="1" vertex="1">
          <mxGeometry x="603" y="233" width="70" height="37" as="geometry"/>
        </mxCell>
        <mxCell id="28vUUWtY91V1V11K80DQ-9" value="" style="edgeStyle=orthogonalEdgeStyle;rounded=1;orthogonalLoop=1;jettySize=auto;html=1;fontSize=12;fillColor=#e51400;strokeColor=#000000;" parent="1" source="28vUUWtY91V1V11K80DQ-7" target="28vUUWtY91V1V11K80DQ-8" edge="1">
          <mxGeometry relative="1" as="geometry">
            <Array as="points">
              <mxPoint x="753" y="280"/>
              <mxPoint x="623" y="280"/>
            </Array>
          </mxGeometry>
        </mxCell>
        <mxCell id="28vUUWtY91V1V11K80DQ-7" value="运抵" style="rounded=1;whiteSpace=wrap;html=1;shadow=0;labelBackgroundColor=none;strokeWidth=1;fontFamily=Verdana;fontSize=12;align=center;" parent="1" vertex="1">
          <mxGeometry x="718" y="233" width="70" height="37" as="geometry"/>
        </mxCell>
        <mxCell id="28vUUWtY91V1V11K80DQ-15" value="" style="edgeStyle=orthogonalEdgeStyle;rounded=0;orthogonalLoop=1;jettySize=auto;html=1;fontSize=12;fillColor=#e51400;strokeColor=#000000;" parent="1" source="28vUUWtY91V1V11K80DQ-8" target="28vUUWtY91V1V11K80DQ-14" edge="1">
          <mxGeometry relative="1" as="geometry"/>
        </mxCell>
        <mxCell id="UOtFKl8LUJkK913McRi7-37" value="" style="edgeStyle=orthogonalEdgeStyle;rounded=0;orthogonalLoop=1;jettySize=auto;html=1;strokeColor=#000000;fontSize=12;fontColor=#CC0000;" parent="1" source="28vUUWtY91V1V11K80DQ-8" target="UOtFKl8LUJkK913McRi7-36" edge="1">
          <mxGeometry relative="1" as="geometry"/>
        </mxCell>
        <mxCell id="28vUUWtY91V1V11K80DQ-8" value="回单" style="rounded=1;whiteSpace=wrap;html=1;shadow=0;labelBackgroundColor=none;strokeWidth=1;fontFamily=Verdana;fontSize=12;align=center;" parent="1" vertex="1">
          <mxGeometry x="588" y="303" width="70" height="37" as="geometry"/>
        </mxCell>
        <mxCell id="28vUUWtY91V1V11K80DQ-39" style="edgeStyle=orthogonalEdgeStyle;rounded=1;orthogonalLoop=1;jettySize=auto;html=1;entryX=0.5;entryY=1;entryDx=0;entryDy=0;fontSize=12;" parent="1" source="28vUUWtY91V1V11K80DQ-14" target="28vUUWtY91V1V11K80DQ-38" edge="1">
          <mxGeometry relative="1" as="geometry"/>
        </mxCell>
        <mxCell id="UOtFKl8LUJkK913McRi7-38" style="edgeStyle=orthogonalEdgeStyle;rounded=0;orthogonalLoop=1;jettySize=auto;html=1;entryX=0.5;entryY=0;entryDx=0;entryDy=0;strokeColor=#000000;fontSize=12;fontColor=#CC0000;" parent="1" source="28vUUWtY91V1V11K80DQ-14" target="iF3wOTfzOUe_LDXgfB9u-4" edge="1">
          <mxGeometry relative="1" as="geometry"/>
        </mxCell>
        <mxCell id="28vUUWtY91V1V11K80DQ-14" value="货主回单审核" style="rounded=1;whiteSpace=wrap;html=1;shadow=0;labelBackgroundColor=none;strokeWidth=1;fontFamily=Verdana;fontSize=12;align=center;" parent="1" vertex="1">
          <mxGeometry x="588" y="370" width="70" height="37" as="geometry"/>
        </mxCell>
        <mxCell id="UOtFKl8LUJkK913McRi7-39" value="" style="edgeStyle=orthogonalEdgeStyle;rounded=0;orthogonalLoop=1;jettySize=auto;html=1;strokeColor=#000000;fontSize=12;fontColor=#CC0000;" parent="1" source="iF3wOTfzOUe_LDXgfB9u-4" target="28vUUWtY91V1V11K80DQ-30" edge="1">
          <mxGeometry relative="1" as="geometry"/>
        </mxCell>
        <mxCell id="UOtFKl8LUJkK913McRi7-41" style="edgeStyle=orthogonalEdgeStyle;rounded=1;orthogonalLoop=1;jettySize=auto;html=1;entryX=0;entryY=0.5;entryDx=0;entryDy=0;strokeColor=#000000;fontSize=12;fontColor=#CC0000;exitX=0;exitY=0.5;exitDx=0;exitDy=0;" parent="1" source="iF3wOTfzOUe_LDXgfB9u-4" target="28vUUWtY91V1V11K80DQ-14" edge="1">
          <mxGeometry relative="1" as="geometry"/>
        </mxCell>
        <mxCell id="iF3wOTfzOUe_LDXgfB9u-4" value="平台数据审核" style="rounded=1;whiteSpace=wrap;html=1;shadow=0;labelBackgroundColor=none;strokeWidth=1;fontFamily=Verdana;fontSize=12;align=center;" parent="1" vertex="1">
          <mxGeometry x="588" y="448" width="70" height="37" as="geometry"/>
        </mxCell>
        <mxCell id="UOtFKl8LUJkK913McRi7-44" style="edgeStyle=orthogonalEdgeStyle;rounded=0;orthogonalLoop=1;jettySize=auto;html=1;entryX=1;entryY=0.5;entryDx=0;entryDy=0;strokeColor=#000000;fontSize=12;fontColor=#CC0000;" parent="1" source="28vUUWtY91V1V11K80DQ-30" target="28vUUWtY91V1V11K80DQ-43" edge="1">
          <mxGeometry relative="1" as="geometry"/>
        </mxCell>
        <mxCell id="28vUUWtY91V1V11K80DQ-30" value="在线支付" style="rounded=1;whiteSpace=wrap;html=1;shadow=0;labelBackgroundColor=none;strokeWidth=1;fontFamily=Verdana;fontSize=12;align=center;" parent="1" vertex="1">
          <mxGeometry x="588" y="538.5" width="70" height="37" as="geometry"/>
        </mxCell>
        <mxCell id="28vUUWtY91V1V11K80DQ-55" value="" style="edgeStyle=orthogonalEdgeStyle;rounded=0;orthogonalLoop=1;jettySize=auto;html=1;fontSize=12;" parent="1" source="28vUUWtY91V1V11K80DQ-52" target="28vUUWtY91V1V11K80DQ-54" edge="1">
          <mxGeometry relative="1" as="geometry"/>
        </mxCell>
        <mxCell id="28vUUWtY91V1V11K80DQ-52" value="申请开票" style="rounded=1;whiteSpace=wrap;html=1;shadow=0;labelBackgroundColor=none;strokeWidth=1;fontFamily=Verdana;fontSize=12;align=center;" parent="1" vertex="1">
          <mxGeometry x="279" y="625.5" width="70" height="37" as="geometry"/>
        </mxCell>
        <mxCell id="28vUUWtY91V1V11K80DQ-59" style="edgeStyle=orthogonalEdgeStyle;rounded=1;orthogonalLoop=1;jettySize=auto;html=1;entryX=0.5;entryY=1;entryDx=0;entryDy=0;fontSize=12;" parent="1" source="28vUUWtY91V1V11K80DQ-54" target="28vUUWtY91V1V11K80DQ-58" edge="1">
          <mxGeometry relative="1" as="geometry"/>
        </mxCell>
        <mxCell id="28vUUWtY91V1V11K80DQ-62" value="" style="edgeStyle=orthogonalEdgeStyle;rounded=0;orthogonalLoop=1;jettySize=auto;html=1;fontSize=12;" parent="1" source="28vUUWtY91V1V11K80DQ-54" target="28vUUWtY91V1V11K80DQ-61" edge="1">
          <mxGeometry relative="1" as="geometry"/>
        </mxCell>
        <mxCell id="28vUUWtY91V1V11K80DQ-54" value="平台开票审核" style="rounded=1;whiteSpace=wrap;html=1;shadow=0;labelBackgroundColor=none;strokeWidth=1;fontFamily=Verdana;fontSize=12;align=center;" parent="1" vertex="1">
          <mxGeometry x="279" y="695.5" width="70" height="37" as="geometry"/>
        </mxCell>
        <mxCell id="28vUUWtY91V1V11K80DQ-61" value="开票/邮寄" style="rounded=1;whiteSpace=wrap;html=1;shadow=0;labelBackgroundColor=none;strokeWidth=1;fontFamily=Verdana;fontSize=12;align=center;" parent="1" vertex="1">
          <mxGeometry x="279" y="765.5" width="70" height="37" as="geometry"/>
        </mxCell>
        <mxCell id="iF3wOTfzOUe_LDXgfB9u-13" style="edgeStyle=orthogonalEdgeStyle;rounded=0;orthogonalLoop=1;jettySize=auto;html=1;fontSize=12;entryX=1;entryY=0.5;entryDx=0;entryDy=0;fillColor=#e51400;strokeColor=#000000;" parent="1" source="28vUUWtY91V1V11K80DQ-43" target="iF3wOTfzOUe_LDXgfB9u-12" edge="1">
          <mxGeometry relative="1" as="geometry">
            <mxPoint x="308" y="556.5" as="targetPoint"/>
          </mxGeometry>
        </mxCell>
        <mxCell id="28vUUWtY91V1V11K80DQ-43" value="平台收款" style="rounded=1;whiteSpace=wrap;html=1;shadow=0;labelBackgroundColor=none;strokeWidth=1;fontFamily=Verdana;fontSize=12;align=center;" parent="1" vertex="1">
          <mxGeometry x="408" y="538.5" width="70" height="37" as="geometry"/>
        </mxCell>
        <mxCell id="28vUUWtY91V1V11K80DQ-85" value="" style="edgeStyle=orthogonalEdgeStyle;rounded=0;orthogonalLoop=1;jettySize=auto;html=1;fontFamily=Verdana;fontSize=12;" parent="1" source="28vUUWtY91V1V11K80DQ-45" target="28vUUWtY91V1V11K80DQ-84" edge="1">
          <mxGeometry relative="1" as="geometry"/>
        </mxCell>
        <mxCell id="UOtFKl8LUJkK913McRi7-50" style="edgeStyle=orthogonalEdgeStyle;rounded=0;orthogonalLoop=1;jettySize=auto;html=1;entryX=1;entryY=0.5;entryDx=0;entryDy=0;strokeColor=#000000;fontSize=12;fontColor=#CC0000;" parent="1" source="28vUUWtY91V1V11K80DQ-45" target="28vUUWtY91V1V11K80DQ-129" edge="1">
          <mxGeometry relative="1" as="geometry"/>
        </mxCell>
        <mxCell id="28vUUWtY91V1V11K80DQ-45" value="车主收款" style="rounded=1;whiteSpace=wrap;html=1;shadow=0;labelBackgroundColor=none;strokeWidth=1;fontFamily=Verdana;fontSize=12;align=center;" parent="1" vertex="1">
          <mxGeometry x="168" y="607" width="70" height="37" as="geometry"/>
        </mxCell>
        <mxCell id="28vUUWtY91V1V11K80DQ-84" value="提现" style="rounded=1;whiteSpace=wrap;html=1;shadow=0;labelBackgroundColor=none;strokeWidth=1;fontFamily=Verdana;fontSize=12;align=center;" parent="1" vertex="1">
          <mxGeometry x="168" y="716.5" width="70" height="37" as="geometry"/>
        </mxCell>
        <mxCell id="UOtFKl8LUJkK913McRi7-24" style="edgeStyle=orthogonalEdgeStyle;rounded=0;orthogonalLoop=1;jettySize=auto;html=1;entryX=0.5;entryY=0;entryDx=0;entryDy=0;fontSize=12;" parent="1" source="28vUUWtY91V1V11K80DQ-10" target="UOtFKl8LUJkK913McRi7-9" edge="1">
          <mxGeometry relative="1" as="geometry"/>
        </mxCell>
        <mxCell id="28vUUWtY91V1V11K80DQ-10" value="车主认证" style="rounded=1;whiteSpace=wrap;html=1;shadow=0;labelBackgroundColor=none;strokeWidth=1;fontFamily=Verdana;fontSize=12;align=center;" parent="1" vertex="1">
          <mxGeometry x="145" y="233" width="70" height="37" as="geometry"/>
        </mxCell>
        <mxCell id="28vUUWtY91V1V11K80DQ-29" style="edgeStyle=orthogonalEdgeStyle;rounded=0;orthogonalLoop=1;jettySize=auto;html=1;entryX=0.078;entryY=0.533;entryDx=0;entryDy=0;entryPerimeter=0;fontSize=12;fillColor=#e51400;strokeColor=#000000;" parent="1" source="28vUUWtY91V1V11K80DQ-17" target="6LW1AeHPkMDRcIlr9ZgV-1" edge="1">
          <mxGeometry relative="1" as="geometry"/>
        </mxCell>
        <mxCell id="28vUUWtY91V1V11K80DQ-17" value="发布货源" style="rounded=1;whiteSpace=wrap;html=1;shadow=0;labelBackgroundColor=none;strokeWidth=1;fontFamily=Verdana;fontSize=12;align=center;" parent="1" vertex="1">
          <mxGeometry x="268" y="124" width="70" height="37" as="geometry"/>
        </mxCell>
        <mxCell id="28vUUWtY91V1V11K80DQ-23" value="" style="edgeStyle=orthogonalEdgeStyle;rounded=0;orthogonalLoop=1;jettySize=auto;html=1;fontSize=12;" parent="1" source="28vUUWtY91V1V11K80DQ-24" target="28vUUWtY91V1V11K80DQ-17" edge="1">
          <mxGeometry relative="1" as="geometry"/>
        </mxCell>
        <mxCell id="28vUUWtY91V1V11K80DQ-24" value="平台&lt;br style=&quot;font-size: 12px;&quot;&gt;经纪人" style="rounded=1;whiteSpace=wrap;html=1;shadow=0;labelBackgroundColor=none;strokeWidth=1;fontFamily=Verdana;fontSize=12;align=center;" parent="1" vertex="1">
          <mxGeometry x="143" y="124" width="70" height="37" as="geometry"/>
        </mxCell>
        <mxCell id="28vUUWtY91V1V11K80DQ-40" value="" style="edgeStyle=orthogonalEdgeStyle;rounded=0;orthogonalLoop=1;jettySize=auto;html=1;fontSize=12;" parent="1" source="28vUUWtY91V1V11K80DQ-38" target="28vUUWtY91V1V11K80DQ-8" edge="1">
          <mxGeometry relative="1" as="geometry"/>
        </mxCell>
        <mxCell id="28vUUWtY91V1V11K80DQ-38" value="回单修改" style="rounded=1;whiteSpace=wrap;html=1;shadow=0;labelBackgroundColor=none;strokeWidth=1;fontFamily=Verdana;fontSize=12;align=center;" parent="1" vertex="1">
          <mxGeometry x="703" y="303" width="70" height="37" as="geometry"/>
        </mxCell>
        <mxCell id="28vUUWtY91V1V11K80DQ-49" value="&lt;span style=&quot;font-family: verdana; font-size: 12px;&quot;&gt;货主支付平台运费&lt;/span&gt;" style="text;html=1;strokeColor=none;fillColor=none;align=center;verticalAlign=middle;whiteSpace=wrap;rounded=0;fontSize=12;" parent="1" vertex="1">
          <mxGeometry x="483" y="530" width="80" height="20" as="geometry"/>
        </mxCell>
        <mxCell id="28vUUWtY91V1V11K80DQ-131" style="edgeStyle=orthogonalEdgeStyle;rounded=0;orthogonalLoop=1;jettySize=auto;html=1;entryX=1;entryY=0.5;entryDx=0;entryDy=0;fontFamily=Verdana;fontSize=12;" parent="1" source="28vUUWtY91V1V11K80DQ-58" target="28vUUWtY91V1V11K80DQ-52" edge="1">
          <mxGeometry relative="1" as="geometry"/>
        </mxCell>
        <mxCell id="28vUUWtY91V1V11K80DQ-58" value="开票修改" style="rounded=1;whiteSpace=wrap;html=1;shadow=0;labelBackgroundColor=none;strokeWidth=1;fontFamily=Verdana;fontSize=12;align=center;" parent="1" vertex="1">
          <mxGeometry x="398" y="625.5" width="70" height="37" as="geometry"/>
        </mxCell>
        <mxCell id="28vUUWtY91V1V11K80DQ-79" value="不通过" style="text;html=1;strokeColor=none;fillColor=none;align=center;verticalAlign=middle;whiteSpace=wrap;rounded=0;shadow=0;fontFamily=Verdana;fontSize=12;" parent="1" vertex="1">
          <mxGeometry x="670" y="369" width="48" height="20" as="geometry"/>
        </mxCell>
        <mxCell id="28vUUWtY91V1V11K80DQ-80" value="通过" style="text;html=1;strokeColor=none;fillColor=none;align=center;verticalAlign=middle;whiteSpace=wrap;rounded=0;shadow=0;fontFamily=Verdana;fontSize=12;" parent="1" vertex="1">
          <mxGeometry x="618" y="417" width="40" height="20" as="geometry"/>
        </mxCell>
        <mxCell id="28vUUWtY91V1V11K80DQ-87" value="运单流程" style="text;html=1;strokeColor=none;fillColor=none;align=center;verticalAlign=middle;whiteSpace=wrap;rounded=0;shadow=0;dashed=1;fontFamily=Verdana;fontSize=12;fontStyle=1;fontColor=#CC0000;" parent="1" vertex="1">
          <mxGeometry x="268" y="343.5" width="94" height="20" as="geometry"/>
        </mxCell>
        <mxCell id="28vUUWtY91V1V11K80DQ-100" value="" style="edgeStyle=orthogonalEdgeStyle;rounded=0;orthogonalLoop=1;jettySize=auto;html=1;fontFamily=Verdana;fontSize=12;" parent="1" source="28vUUWtY91V1V11K80DQ-90" target="28vUUWtY91V1V11K80DQ-10" edge="1">
          <mxGeometry relative="1" as="geometry"/>
        </mxCell>
        <mxCell id="28vUUWtY91V1V11K80DQ-90" value="车主注册" style="image;html=1;labelBackgroundColor=#ffffff;image=img/lib/clip_art/people/Worker_Man_128x128.png;rounded=1;shadow=0;dashed=1;strokeWidth=1;fontFamily=Verdana;fontSize=12;" parent="1" vertex="1">
          <mxGeometry x="65" y="230" width="50" height="43" as="geometry"/>
        </mxCell>
        <mxCell id="28vUUWtY91V1V11K80DQ-98" value="" style="edgeStyle=orthogonalEdgeStyle;rounded=0;orthogonalLoop=1;jettySize=auto;html=1;fontFamily=Verdana;fontSize=12;" parent="1" source="28vUUWtY91V1V11K80DQ-94" target="28vUUWtY91V1V11K80DQ-96" edge="1">
          <mxGeometry relative="1" as="geometry"/>
        </mxCell>
        <mxCell id="28vUUWtY91V1V11K80DQ-94" value="货主注册" style="image;html=1;labelBackgroundColor=#ffffff;image=img/lib/clip_art/people/Suit_Man_128x128.png;rounded=1;shadow=0;dashed=1;strokeWidth=1;fontFamily=Verdana;fontSize=12;" parent="1" vertex="1">
          <mxGeometry x="60" y="40" width="55" height="39" as="geometry"/>
        </mxCell>
        <mxCell id="28vUUWtY91V1V11K80DQ-107" style="edgeStyle=orthogonalEdgeStyle;rounded=0;orthogonalLoop=1;jettySize=auto;html=1;entryX=0;entryY=0.5;entryDx=0;entryDy=0;fontFamily=Verdana;fontSize=12;" parent="1" source="28vUUWtY91V1V11K80DQ-96" edge="1">
          <mxGeometry relative="1" as="geometry">
            <mxPoint x="270" y="60" as="targetPoint"/>
          </mxGeometry>
        </mxCell>
        <mxCell id="UOtFKl8LUJkK913McRi7-5" style="edgeStyle=orthogonalEdgeStyle;rounded=0;orthogonalLoop=1;jettySize=auto;html=1;fontSize=12;" parent="1" source="28vUUWtY91V1V11K80DQ-96" target="28vUUWtY91V1V11K80DQ-24" edge="1">
          <mxGeometry relative="1" as="geometry"/>
        </mxCell>
        <mxCell id="28vUUWtY91V1V11K80DQ-96" value="企业货主认证" style="rounded=1;whiteSpace=wrap;html=1;shadow=0;labelBackgroundColor=none;strokeWidth=1;fontFamily=Verdana;fontSize=12;align=center;" parent="1" vertex="1">
          <mxGeometry x="143" y="41" width="70" height="37" as="geometry"/>
        </mxCell>
        <mxCell id="UOtFKl8LUJkK913McRi7-47" style="edgeStyle=orthogonalEdgeStyle;rounded=0;orthogonalLoop=1;jettySize=auto;html=1;entryX=0.5;entryY=0;entryDx=0;entryDy=0;strokeColor=#000000;fontSize=12;fontColor=#CC0000;" parent="1" source="28vUUWtY91V1V11K80DQ-112" target="28vUUWtY91V1V11K80DQ-17" edge="1">
          <mxGeometry relative="1" as="geometry"/>
        </mxCell>
        <mxCell id="28vUUWtY91V1V11K80DQ-112" value="调度员" style="rounded=1;whiteSpace=wrap;html=1;shadow=0;labelBackgroundColor=none;strokeWidth=1;fontFamily=Verdana;fontSize=12;align=center;" parent="1" vertex="1">
          <mxGeometry x="268" y="41" width="70" height="37" as="geometry"/>
        </mxCell>
        <mxCell id="28vUUWtY91V1V11K80DQ-120" value="资金流" style="text;html=1;strokeColor=none;fillColor=none;align=center;verticalAlign=middle;whiteSpace=wrap;rounded=0;shadow=0;dashed=1;fontFamily=Verdana;fontSize=12;fontStyle=1;fontColor=#CC0000;" parent="1" vertex="1">
          <mxGeometry x="48" y="518.5" width="58" height="20" as="geometry"/>
        </mxCell>
        <mxCell id="28vUUWtY91V1V11K80DQ-122" value="企业税率管理" style="rounded=1;whiteSpace=wrap;html=1;shadow=0;labelBackgroundColor=none;strokeWidth=1;fontFamily=Verdana;fontSize=12;align=center;" parent="1" vertex="1">
          <mxGeometry x="396.5" y="765.5" width="70" height="37" as="geometry"/>
        </mxCell>
        <mxCell id="28vUUWtY91V1V11K80DQ-123" value="提交审核数据" style="text;html=1;strokeColor=none;fillColor=none;align=center;verticalAlign=middle;whiteSpace=wrap;rounded=0;shadow=0;dashed=1;fontFamily=Verdana;fontSize=12;" parent="1" vertex="1">
          <mxGeometry x="322" y="669" width="86" height="20" as="geometry"/>
        </mxCell>
        <mxCell id="28vUUWtY91V1V11K80DQ-138" style="edgeStyle=orthogonalEdgeStyle;rounded=0;orthogonalLoop=1;jettySize=auto;html=1;entryX=0.5;entryY=0;entryDx=0;entryDy=0;fontFamily=Verdana;fontSize=12;" parent="1" source="28vUUWtY91V1V11K80DQ-129" target="28vUUWtY91V1V11K80DQ-137" edge="1">
          <mxGeometry relative="1" as="geometry"/>
        </mxCell>
        <mxCell id="28vUUWtY91V1V11K80DQ-129" value="司机收款" style="rounded=1;whiteSpace=wrap;html=1;shadow=0;labelBackgroundColor=none;strokeWidth=1;fontFamily=Verdana;fontSize=12;align=center;" parent="1" vertex="1">
          <mxGeometry x="48" y="607" width="79" height="37" as="geometry"/>
        </mxCell>
        <mxCell id="28vUUWtY91V1V11K80DQ-136" style="edgeStyle=orthogonalEdgeStyle;rounded=1;orthogonalLoop=1;jettySize=auto;html=1;entryX=0.5;entryY=0;entryDx=0;entryDy=0;fontFamily=Verdana;fontSize=12;fillColor=#e51400;strokeColor=#000000;exitX=0;exitY=0.5;exitDx=0;exitDy=0;" parent="1" source="iF3wOTfzOUe_LDXgfB9u-12" target="28vUUWtY91V1V11K80DQ-45" edge="1">
          <mxGeometry relative="1" as="geometry">
            <mxPoint x="278" y="556" as="sourcePoint"/>
          </mxGeometry>
        </mxCell>
        <mxCell id="28vUUWtY91V1V11K80DQ-137" value="提现" style="rounded=1;whiteSpace=wrap;html=1;shadow=0;labelBackgroundColor=none;strokeWidth=1;fontFamily=Verdana;fontSize=12;align=center;" parent="1" vertex="1">
          <mxGeometry x="53" y="715.5" width="70" height="37" as="geometry"/>
        </mxCell>
        <mxCell id="28vUUWtY91V1V11K80DQ-139" value="财务审核" style="text;html=1;strokeColor=none;fillColor=none;align=center;verticalAlign=middle;whiteSpace=wrap;rounded=0;shadow=0;dashed=1;fontFamily=Verdana;fontSize=12;" parent="1" vertex="1">
          <mxGeometry x="340.5" y="537" width="59" height="20" as="geometry"/>
        </mxCell>
        <mxCell id="6LW1AeHPkMDRcIlr9ZgV-7" style="edgeStyle=orthogonalEdgeStyle;rounded=1;orthogonalLoop=1;jettySize=auto;html=1;entryX=0.5;entryY=0;entryDx=0;entryDy=0;exitX=0.55;exitY=0.95;exitDx=0;exitDy=0;exitPerimeter=0;fontSize=12;fillColor=#e51400;strokeColor=#000000;" parent="1" source="6LW1AeHPkMDRcIlr9ZgV-1" target="28vUUWtY91V1V11K80DQ-2" edge="1">
          <mxGeometry relative="1" as="geometry">
            <Array as="points">
              <mxPoint x="467" y="190"/>
              <mxPoint x="308" y="190"/>
            </Array>
          </mxGeometry>
        </mxCell>
        <mxCell id="6LW1AeHPkMDRcIlr9ZgV-1" value="车货匹配&lt;br style=&quot;font-size: 12px;&quot;&gt;竞价/抢单/指派" style="ellipse;shape=cloud;whiteSpace=wrap;html=1;fontSize=12;fillColor=#cce5ff;strokeColor=#36393d;" parent="1" vertex="1">
          <mxGeometry x="390" y="106" width="140" height="70" as="geometry"/>
        </mxCell>
        <mxCell id="iF3wOTfzOUe_LDXgfB9u-14" style="edgeStyle=orthogonalEdgeStyle;rounded=0;orthogonalLoop=1;jettySize=auto;html=1;entryX=0.5;entryY=0;entryDx=0;entryDy=0;fontSize=12;fillColor=#e51400;strokeColor=#000000;" parent="1" source="iF3wOTfzOUe_LDXgfB9u-12" target="28vUUWtY91V1V11K80DQ-52" edge="1">
          <mxGeometry relative="1" as="geometry"/>
        </mxCell>
        <mxCell id="iF3wOTfzOUe_LDXgfB9u-12" value="" style="shape=mxgraph.bpmn.shape;html=1;verticalLabelPosition=bottom;labelBackgroundColor=#ffffff;verticalAlign=top;perimeter=rhombusPerimeter;background=gateway;outline=none;symbol=parallelGw;rounded=1;shadow=0;strokeWidth=1;fontFamily=Verdana;fontSize=12;align=center;" parent="1" vertex="1">
          <mxGeometry x="299" y="542" width="30" height="30" as="geometry"/>
        </mxCell>
        <mxCell id="UOtFKl8LUJkK913McRi7-6" value="分配权限" style="text;html=1;align=center;verticalAlign=middle;resizable=0;points=[];;autosize=1;fontSize=12;" parent="1" vertex="1">
          <mxGeometry x="180" y="91.5" width="60" height="20" as="geometry"/>
        </mxCell>
        <mxCell id="UOtFKl8LUJkK913McRi7-12" style="edgeStyle=orthogonalEdgeStyle;rounded=0;orthogonalLoop=1;jettySize=auto;html=1;entryX=0.5;entryY=0;entryDx=0;entryDy=0;fontSize=12;" parent="1" source="UOtFKl8LUJkK913McRi7-9" target="UOtFKl8LUJkK913McRi7-10" edge="1">
          <mxGeometry relative="1" as="geometry"/>
        </mxCell>
        <mxCell id="UOtFKl8LUJkK913McRi7-9" value="添加司机" style="rounded=1;whiteSpace=wrap;html=1;shadow=0;labelBackgroundColor=none;strokeWidth=1;fontFamily=Verdana;fontSize=12;align=center;" parent="1" vertex="1">
          <mxGeometry x="145" y="303" width="70" height="37" as="geometry"/>
        </mxCell>
        <mxCell id="UOtFKl8LUJkK913McRi7-16" value="" style="edgeStyle=orthogonalEdgeStyle;rounded=0;orthogonalLoop=1;jettySize=auto;html=1;fontSize=12;" parent="1" source="UOtFKl8LUJkK913McRi7-10" target="UOtFKl8LUJkK913McRi7-15" edge="1">
          <mxGeometry relative="1" as="geometry"/>
        </mxCell>
        <mxCell id="UOtFKl8LUJkK913McRi7-10" value="添加车辆" style="rounded=1;whiteSpace=wrap;html=1;shadow=0;labelBackgroundColor=none;strokeWidth=1;fontFamily=Verdana;fontSize=12;align=center;" parent="1" vertex="1">
          <mxGeometry x="145" y="368" width="70" height="37" as="geometry"/>
        </mxCell>
        <mxCell id="UOtFKl8LUJkK913McRi7-15" value="人车绑定" style="rounded=1;whiteSpace=wrap;html=1;shadow=0;labelBackgroundColor=none;strokeWidth=1;fontFamily=Verdana;fontSize=12;align=center;" parent="1" vertex="1">
          <mxGeometry x="145" y="436" width="70" height="37" as="geometry"/>
        </mxCell>
        <mxCell id="UOtFKl8LUJkK913McRi7-36" value="信用评价" style="rounded=1;whiteSpace=wrap;html=1;shadow=0;labelBackgroundColor=none;strokeWidth=1;fontFamily=Verdana;fontSize=12;align=center;" parent="1" vertex="1">
          <mxGeometry x="483" y="303" width="70" height="37" as="geometry"/>
        </mxCell>
        <mxCell id="UOtFKl8LUJkK913McRi7-42" value="不通过" style="text;html=1;strokeColor=none;fillColor=none;align=center;verticalAlign=middle;whiteSpace=wrap;rounded=0;shadow=0;fontFamily=Verdana;fontSize=12;" parent="1" vertex="1">
          <mxGeometry x="524" y="426" width="48" height="20" as="geometry"/>
        </mxCell>
        <mxCell id="UOtFKl8LUJkK913McRi7-43" value="通过" style="text;html=1;strokeColor=none;fillColor=none;align=center;verticalAlign=middle;whiteSpace=wrap;rounded=0;shadow=0;fontFamily=Verdana;fontSize=12;" parent="1" vertex="1">
          <mxGeometry x="618" y="517" width="40" height="20" as="geometry"/>
        </mxCell>
        <mxCell id="UOtFKl8LUJkK913McRi7-51" value="不通过" style="text;html=1;strokeColor=none;fillColor=none;align=center;verticalAlign=middle;whiteSpace=wrap;rounded=0;shadow=0;fontFamily=Verdana;fontSize=12;" parent="1" vertex="1">
          <mxGeometry x="360" y="715.5" width="48" height="20" as="geometry"/>
        </mxCell>
        <mxCell id="UOtFKl8LUJkK913McRi7-52" value="通过" style="text;html=1;strokeColor=none;fillColor=none;align=center;verticalAlign=middle;whiteSpace=wrap;rounded=0;shadow=0;fontFamily=Verdana;fontSize=12;" parent="1" vertex="1">
          <mxGeometry x="309" y="735.5" width="40" height="20" as="geometry"/>
        </mxCell>
        <mxCell id="fRjOnY-xZo_MZWheay3A-5" style="edgeStyle=orthogonalEdgeStyle;rounded=0;orthogonalLoop=1;jettySize=auto;html=1;entryX=0;entryY=0.5;entryDx=0;entryDy=0;strokeColor=#000000;fontSize=12;fontColor=#CC0000;" parent="1" source="fRjOnY-xZo_MZWheay3A-1" target="28vUUWtY91V1V11K80DQ-4" edge="1">
          <mxGeometry relative="1" as="geometry"/>
        </mxCell>
        <mxCell id="fRjOnY-xZo_MZWheay3A-1" value="预约确认" style="rounded=1;whiteSpace=wrap;html=1;shadow=0;labelBackgroundColor=none;strokeWidth=1;fontFamily=Verdana;fontSize=12;align=center;" parent="1" vertex="1">
          <mxGeometry x="381" y="233" width="70" height="37" as="geometry"/>
        </mxCell>
      </root>
    </mxGraphModel>
  </diagram>
</mxfile>
